<?xml version="1.0" encoding="utf-8"?>
<!-- Generator: Adobe Illustrator 21.1.0, SVG Export Plug-In . SVG Version: 6.00 Build 0)  -->
<svg version="1.1" id="Capa_1" xmlns="http://www.w3.org/2000/svg" xmlns:xlink="http://www.w3.org/1999/xlink" x="0px" y="0px"
	 viewBox="0 0 200 100" style="enable-background:new 0 0 200 100;" xml:space="preserve">
<style type="text/css">
	.st0{fill:none;stroke:url(#SVGID_1_);stroke-miterlimit:10;}
	.st1{fill:none;stroke:url(#SVGID_2_);stroke-miterlimit:10;}
	.st2{fill:none;stroke:url(#SVGID_3_);stroke-miterlimit:10;}
	.st3{fill:url(#SVGID_4_);}
	.st4{fill:url(#SVGID_5_);}
	.st5{fill:url(#SVGID_6_);}
	.st6{fill:url(#SVGID_7_);}
	.st7{fill:url(#SVGID_8_);}
	.st8{fill:#FFFFFF;}
</style>
<g>
	<radialGradient id="SVGID_1_" cx="15.65" cy="49.95" r="18.9695" gradientUnits="userSpaceOnUse">
		<stop  offset="0" style="stop-color:#FFFFFF"/>
		<stop  offset="0.2005" style="stop-color:#FFFEFC"/>
		<stop  offset="0.3349" style="stop-color:#FEFDF3"/>
		<stop  offset="0.45" style="stop-color:#FDFAE4"/>
		<stop  offset="0.5542" style="stop-color:#FBF6CF"/>
		<stop  offset="0.651" style="stop-color:#F8F1B3"/>
		<stop  offset="0.7424" style="stop-color:#F6EB91"/>
		<stop  offset="0.8296" style="stop-color:#F2E368"/>
		<stop  offset="0.9134" style="stop-color:#EEDB3A"/>
		<stop  offset="0.9918" style="stop-color:#EAD106"/>
		<stop  offset="1" style="stop-color:#E9D000"/>
	</radialGradient>
	<path class="st0" d="M12.1,32H5.8v-6.3h19.7V32h-6.6v42.2h-6.8C12.1,74.2,12.1,32,12.1,32z"/>
	<radialGradient id="SVGID_2_" cx="35.05" cy="56.1" r="14.9755" gradientUnits="userSpaceOnUse">
		<stop  offset="0" style="stop-color:#FFFFFF"/>
		<stop  offset="0.2005" style="stop-color:#FFFEFC"/>
		<stop  offset="0.3349" style="stop-color:#FEFDF3"/>
		<stop  offset="0.45" style="stop-color:#FDFAE4"/>
		<stop  offset="0.5542" style="stop-color:#FBF6CF"/>
		<stop  offset="0.651" style="stop-color:#F8F1B3"/>
		<stop  offset="0.7424" style="stop-color:#F6EB91"/>
		<stop  offset="0.8296" style="stop-color:#F2E368"/>
		<stop  offset="0.9134" style="stop-color:#EEDB3A"/>
		<stop  offset="0.9918" style="stop-color:#EAD106"/>
		<stop  offset="1" style="stop-color:#E9D000"/>
	</radialGradient>
	<path class="st1" d="M43.7,64.5c0,6.7-2.9,10.2-8.6,10.2s-8.7-3.5-8.7-10.2V47.7c0-6.7,2.9-10.2,8.7-10.2c5.7,0,8.6,3.5,8.6,10.2
		C43.7,47.7,43.7,64.5,43.7,64.5z M32.8,65.5c0,2.1,0.8,3.3,2.3,3.3s2.3-1.2,2.3-3.3V46.7c0-2.1-0.8-3.3-2.3-3.3s-2.3,1.2-2.3,3.3
		V65.5z"/>
	<radialGradient id="SVGID_3_" cx="57.55" cy="62" r="18.8003" gradientUnits="userSpaceOnUse">
		<stop  offset="0" style="stop-color:#FFFFFF"/>
		<stop  offset="0.2005" style="stop-color:#FFFEFC"/>
		<stop  offset="0.3349" style="stop-color:#FEFDF3"/>
		<stop  offset="0.45" style="stop-color:#FDFAE4"/>
		<stop  offset="0.5542" style="stop-color:#FBF6CF"/>
		<stop  offset="0.651" style="stop-color:#F8F1B3"/>
		<stop  offset="0.7424" style="stop-color:#F6EB91"/>
		<stop  offset="0.8296" style="stop-color:#F2E368"/>
		<stop  offset="0.9134" style="stop-color:#EEDB3A"/>
		<stop  offset="0.9918" style="stop-color:#EAD106"/>
		<stop  offset="1" style="stop-color:#E9D000"/>
	</radialGradient>
	<path class="st2" d="M55.2,38l0.1,3.4c2.4-2.8,4-3.9,6-3.9c1.5,0,3.1,0.9,3.8,2.1c0.8,1.2,1,2.6,1,6.4v20.1c0,3.7-0.2,5.2-1,6.4
		c-0.7,1.2-2.3,2.1-3.8,2.1c-1.9,0-3.6-1.1-6-3.9v15.8H49V38H55.2z M55.4,67.4c1.3,1.1,2,1.5,2.8,1.5c1.1,0,1.6-0.9,1.6-2.7V46
		c0-1.7-0.5-2.7-1.6-2.7c-0.9,0-1.5,0.4-2.8,1.5V67.4z"/>
	<radialGradient id="SVGID_4_" cx="145.4" cy="56.05" r="14.4579" gradientUnits="userSpaceOnUse">
		<stop  offset="0" style="stop-color:#FFFFFF"/>
		<stop  offset="0.2005" style="stop-color:#FFFEFC"/>
		<stop  offset="0.3349" style="stop-color:#FEFDF3"/>
		<stop  offset="0.45" style="stop-color:#FDFAE4"/>
		<stop  offset="0.5542" style="stop-color:#FBF6CF"/>
		<stop  offset="0.651" style="stop-color:#F8F1B3"/>
		<stop  offset="0.7424" style="stop-color:#F6EB91"/>
		<stop  offset="0.8296" style="stop-color:#F2E368"/>
		<stop  offset="0.9134" style="stop-color:#EEDB3A"/>
		<stop  offset="0.9918" style="stop-color:#EAD106"/>
		<stop  offset="1" style="stop-color:#E9D000"/>
	</radialGradient>
	<path class="st3" d="M147.9,47.1v-0.5c0-2.2-0.7-3.3-2.1-3.3c-1.5,0-2.1,1-2.1,3.4c0,2.2,0.7,3.5,2.6,5.6l2.5,2.6
		c3.9,4.1,5.2,6.8,5.2,10.4c0,5.6-3.5,9.3-8.7,9.3s-8.5-3.4-8.5-8.8c0-0.4,0-0.5,0.1-0.9l6.1-0.4c-0.1,0.6-0.1,0.8-0.1,1.2
		c0,2,0.9,3.1,2.4,3.1s2.4-1.2,2.4-3.1c0-2.3-0.7-3.5-3.6-6.6l-2.5-2.5c-2.8-2.9-4.1-6.2-4.1-10c0-6,2.9-9.1,8.7-9.1
		c3.4,0,6,1.6,7.1,4.4c0.5,1.4,0.7,2.5,0.7,4.8L147.9,47.1z"/>
	<radialGradient id="SVGID_5_" cx="161.25" cy="49.9" r="17.3265" gradientUnits="userSpaceOnUse">
		<stop  offset="0" style="stop-color:#FFFFFF"/>
		<stop  offset="0.2005" style="stop-color:#FFFEFC"/>
		<stop  offset="0.3349" style="stop-color:#FEFDF3"/>
		<stop  offset="0.45" style="stop-color:#FDFAE4"/>
		<stop  offset="0.5542" style="stop-color:#FBF6CF"/>
		<stop  offset="0.651" style="stop-color:#F8F1B3"/>
		<stop  offset="0.7424" style="stop-color:#F6EB91"/>
		<stop  offset="0.8296" style="stop-color:#F2E368"/>
		<stop  offset="0.9134" style="stop-color:#EEDB3A"/>
		<stop  offset="0.9918" style="stop-color:#EAD106"/>
		<stop  offset="1" style="stop-color:#E9D000"/>
	</radialGradient>
	<path class="st4" d="M164.4,32.1h-6.3v-6.5h6.3V32.1z M164.4,74.2h-6.3V38h6.3V74.2z"/>
	<radialGradient id="SVGID_6_" cx="178.3" cy="56.15" r="14.5518" gradientUnits="userSpaceOnUse">
		<stop  offset="0" style="stop-color:#FFFFFF"/>
		<stop  offset="0.2005" style="stop-color:#FFFEFC"/>
		<stop  offset="0.3349" style="stop-color:#FEFDF3"/>
		<stop  offset="0.45" style="stop-color:#FDFAE4"/>
		<stop  offset="0.5542" style="stop-color:#FBF6CF"/>
		<stop  offset="0.651" style="stop-color:#F8F1B3"/>
		<stop  offset="0.7424" style="stop-color:#F6EB91"/>
		<stop  offset="0.8296" style="stop-color:#F2E368"/>
		<stop  offset="0.9134" style="stop-color:#EEDB3A"/>
		<stop  offset="0.9918" style="stop-color:#EAD106"/>
		<stop  offset="1" style="stop-color:#E9D000"/>
	</radialGradient>
	<path class="st5" d="M180.6,50.7v-1.5v-1.6c0-3.2-0.6-4.3-2.4-4.3c-1.6,0-2.3,1.1-2.3,3.7v18.1c0,2.6,0.7,3.7,2.3,3.7
		c1.8,0,2.4-1.1,2.4-4.3V63v-2h6.3c0.1,2.8,0.1,3,0.1,3.9c0,6.4-3.1,9.9-8.9,9.9c-2.8,0-4.9-1-6.5-3.1c-1.5-1.7-2-3.7-2-7.1V47.7
		c0-3.4,0.5-5.4,2-7.1c1.6-2,3.8-3.1,6.5-3.1c5.7,0,8.9,3.5,8.9,9.8c0,0.7,0,0.9-0.1,3.3L180.6,50.7L180.6,50.7z"/>
	<radialGradient id="SVGID_7_" cx="97.15" cy="49.95" r="19.406" gradientUnits="userSpaceOnUse">
		<stop  offset="0" style="stop-color:#FFFFFF"/>
		<stop  offset="0.2005" style="stop-color:#FFFEFC"/>
		<stop  offset="0.3349" style="stop-color:#FEFDF3"/>
		<stop  offset="0.45" style="stop-color:#FDFAE4"/>
		<stop  offset="0.5542" style="stop-color:#FBF6CF"/>
		<stop  offset="0.651" style="stop-color:#F8F1B3"/>
		<stop  offset="0.7424" style="stop-color:#F6EB91"/>
		<stop  offset="0.8296" style="stop-color:#F2E368"/>
		<stop  offset="0.9134" style="stop-color:#EEDB3A"/>
		<stop  offset="0.9918" style="stop-color:#EAD106"/>
		<stop  offset="1" style="stop-color:#E9D000"/>
	</radialGradient>
	<path class="st6" d="M101.9,25.7h8.1v48.5h-5.8V39.9l-5.7,34.2h-2.9L90,39.9v34.2h-5.7V25.7h8l4.8,24.1L101.9,25.7z"/>
	<radialGradient id="SVGID_8_" cx="124.1" cy="56.35" r="14.2999" gradientUnits="userSpaceOnUse">
		<stop  offset="0" style="stop-color:#FFFFFF"/>
		<stop  offset="0.2005" style="stop-color:#FFFEFC"/>
		<stop  offset="0.3349" style="stop-color:#FEFDF3"/>
		<stop  offset="0.45" style="stop-color:#FDFAE4"/>
		<stop  offset="0.5542" style="stop-color:#FBF6CF"/>
		<stop  offset="0.651" style="stop-color:#F8F1B3"/>
		<stop  offset="0.7424" style="stop-color:#F6EB91"/>
		<stop  offset="0.8296" style="stop-color:#F2E368"/>
		<stop  offset="0.9134" style="stop-color:#EEDB3A"/>
		<stop  offset="0.9918" style="stop-color:#EAD106"/>
		<stop  offset="1" style="stop-color:#E9D000"/>
	</radialGradient>
	<path class="st7" d="M126.9,74.2l-0.5-3.1c-2.6,2.8-4.1,3.6-5.9,3.6c-1.5,0-3.1-0.9-3.9-2c-0.8-1.2-1-2.6-1-6.3V38h6.3v28.1
		c0,1.8,0.5,2.7,1.6,2.7c0.9,0,1.5-0.4,2.8-1.5V38h6.3v36.1L126.9,74.2L126.9,74.2z"/>
</g>
<g>
	<path class="st8" d="M113.3,34.2V24h1.4l3.3,5.1c0.8,1.2,1.3,2.3,1.8,3.3l0,0c-0.1-1.4-0.2-2.6-0.2-4.2V24h1.2v10.2h-1.3l-3.2-5.2
		c-0.7-1.1-1.4-2.3-1.9-3.4l0,0c0.1,1.3,0.1,2.5,0.1,4.2v4.3h-1.2V34.2z"/>
	<path class="st8" d="M123.9,30.8c0,1.8,1.2,2.5,2.5,2.5c0.9,0,1.5-0.2,2-0.4l0.2,0.9c-0.5,0.2-1.3,0.5-2.4,0.5
		c-2.2,0-3.6-1.5-3.6-3.7s1.3-3.9,3.4-3.9c2.4,0,3,2.1,3,3.4c0,0.3,0,0.5,0,0.6h-5.1V30.8z M127.8,29.8c0-0.8-0.3-2.2-1.8-2.2
		c-1.3,0-1.9,1.2-2,2.2H127.8z"/>
	<path class="st8" d="M130.8,23.5h1.3v10.7h-1.3V23.5z"/>
	<path class="st8" d="M134.1,32.8c0.4,0.3,1.1,0.5,1.7,0.5c1,0,1.4-0.5,1.4-1.1c0-0.6-0.4-1-1.4-1.3c-1.3-0.5-1.9-1.2-1.9-2.1
		c0-1.2,0.9-2.1,2.5-2.1c0.7,0,1.4,0.2,1.8,0.5l-0.3,1c-0.3-0.2-0.8-0.4-1.5-0.4c-0.8,0-1.2,0.5-1.2,1c0,0.6,0.4,0.9,1.4,1.2
		c1.3,0.5,1.9,1.1,1.9,2.2c0,1.3-1,2.2-2.7,2.2c-0.8,0-1.5-0.2-2-0.5L134.1,32.8z"/>
	<path class="st8" d="M146.9,30.5c0,2.7-1.9,3.9-3.6,3.9c-2,0-3.5-1.4-3.5-3.8s1.6-3.9,3.6-3.9C145.5,26.7,146.9,28.2,146.9,30.5z
		 M141.1,30.5c0,1.6,0.9,2.8,2.2,2.8s2.2-1.2,2.2-2.8c0-1.2-0.6-2.8-2.2-2.8C141.8,27.7,141.1,29.2,141.1,30.5z"/>
	<path class="st8" d="M148.6,28.9c0-0.8,0-1.4-0.1-2h1.2l0.1,1.2l0,0c0.4-0.7,1.2-1.4,2.4-1.4c1,0,2.6,0.6,2.6,3.1v4.4h-1.3V30
		c0-1.2-0.4-2.2-1.7-2.2c-0.9,0-1.6,0.6-1.8,1.4c-0.1,0.2-0.1,0.4-0.1,0.6v4.4h-1.3L148.6,28.9L148.6,28.9z"/>
	<path class="st8" d="M166.9,27.2c0.4-0.1,0.9-0.1,1.5-0.1c0.8,0,1.3,0.1,1.7,0.5c0.3,0.3,0.5,0.7,0.5,1.1c0,0.8-0.5,1.3-1.1,1.5
		l0,0c0.5,0.2,0.7,0.6,0.9,1.2c0.2,0.8,0.3,1.4,0.5,1.6H170c-0.1-0.2-0.2-0.7-0.4-1.4c-0.2-0.8-0.5-1.1-1.2-1.1h-0.7v2.6h-0.8
		L166.9,27.2L166.9,27.2z M167.7,29.9h0.8c0.8,0,1.3-0.4,1.3-1.1c0-0.8-0.6-1.1-1.4-1.1c-0.4,0-0.6,0-0.8,0.1L167.7,29.9L167.7,29.9
		z"/>
	<path class="st8" d="M172.1,31.1c0,1,0.7,1.5,1.5,1.5c0.6,0,0.9-0.1,1.2-0.2l0.1,0.6c-0.3,0.1-0.7,0.3-1.4,0.3
		c-1.3,0-2.1-0.9-2.1-2.1s0.8-2.3,2-2.3c1.4,0,1.8,1.2,1.8,2c0,0.2,0,0.3,0,0.4h-3.1V31.1z M174.4,30.5c0-0.5-0.2-1.3-1.1-1.3
		c-0.8,0-1.1,0.7-1.2,1.3H174.4z"/>
	<path class="st8" d="M176.4,28.8l0.9,2.5c0.1,0.3,0.2,0.6,0.3,0.9l0,0c0.1-0.3,0.2-0.6,0.3-0.9l0.8-2.5h0.8l-1.2,3
		c-0.6,1.5-0.9,2.2-1.5,2.7c-0.4,0.3-0.8,0.5-0.9,0.5l-0.2-0.6c0.2-0.1,0.4-0.2,0.7-0.4c0.2-0.2,0.5-0.5,0.6-0.9
		c0-0.1,0.1-0.1,0.1-0.2c0,0,0-0.1-0.1-0.2l-1.6-3.9C175.4,28.8,176.4,28.8,176.4,28.8z"/>
	<path class="st8" d="M180.5,31.1c0,1,0.7,1.5,1.5,1.5c0.6,0,0.9-0.1,1.2-0.2l0.1,0.6c-0.3,0.1-0.7,0.3-1.4,0.3
		c-1.3,0-2.1-0.9-2.1-2.1s0.8-2.3,2-2.3c1.4,0,1.8,1.2,1.8,2c0,0.2,0,0.3,0,0.4h-3.1V31.1z M182.8,30.5c0-0.5-0.2-1.3-1.1-1.3
		c-0.8,0-1.1,0.7-1.2,1.3H182.8z"/>
	<path class="st8" d="M184.4,32.3c0.2,0.1,0.6,0.3,1,0.3c0.6,0,0.8-0.3,0.8-0.6c0-0.4-0.2-0.6-0.8-0.8c-0.8-0.3-1.1-0.7-1.1-1.2
		c0-0.7,0.6-1.2,1.5-1.2c0.4,0,0.8,0.1,1,0.3l-0.2,0.6c-0.2-0.1-0.5-0.2-0.9-0.2c-0.5,0-0.7,0.3-0.7,0.6c0,0.4,0.3,0.5,0.8,0.7
		c0.7,0.3,1.1,0.6,1.1,1.3s-0.6,1.3-1.6,1.3c-0.5,0-0.9-0.1-1.2-0.3L184.4,32.3z"/>
</g>
</svg>
